<svg width="211" height="220" viewBox="0 0 211 220" fill="none" xmlns="http://www.w3.org/2000/svg">
<path d="M177.647 114.54H33.3789V175.314H177.647V114.54Z" fill="#38BFF2" stroke="#263238" stroke-linecap="round" stroke-linejoin="round"/>
<path d="M49.9645 118.219H36.3926V125.732H49.9645V118.219Z" fill="white" stroke="#263238" stroke-miterlimit="10"/>
<path d="M174.307 154.851H152.93V162.364H174.307V154.851Z" fill="white" stroke="#263238" stroke-miterlimit="10"/>
<path d="M174.314 127.602H161.117V135.115H174.314V127.602Z" fill="white" stroke="#263238" stroke-miterlimit="10"/>
<path d="M49.9645 145.587H36.3926V153.1H49.9645V145.587Z" fill="white" stroke="#263238" stroke-miterlimit="10"/>
<path d="M47.3814 136.535H36.3926V144.048H47.3814V136.535Z" fill="white" stroke="#263238" stroke-miterlimit="10"/>
<path d="M43.904 127.377H36.3926V134.89H43.904V127.377Z" fill="white" stroke="#263238" stroke-miterlimit="10"/>
<path d="M53.4997 127.377H45.9883V134.89H53.4997V127.377Z" fill="white" stroke="#263238" stroke-miterlimit="10"/>
<path d="M63.0876 127.377H55.5762V134.89H63.0876V127.377Z" fill="white" stroke="#263238" stroke-miterlimit="10"/>
<path d="M72.6755 127.377H65.1641V134.89H72.6755V127.377Z" fill="white" stroke="#263238" stroke-miterlimit="10"/>
<path d="M82.2693 127.377H74.7578V134.89H82.2693V127.377Z" fill="white" stroke="#263238" stroke-miterlimit="10"/>
<path d="M91.8572 127.377H84.3457V134.89H91.8572V127.377Z" fill="white" stroke="#263238" stroke-miterlimit="10"/>
<path d="M101.445 127.377H93.9336V134.89H101.445V127.377Z" fill="white" stroke="#263238" stroke-miterlimit="10"/>
<path d="M111.039 127.377H103.527V134.89H111.039V127.377Z" fill="white" stroke="#263238" stroke-miterlimit="10"/>
<path d="M120.627 127.377H113.115V134.89H120.627V127.377Z" fill="white" stroke="#263238" stroke-miterlimit="10"/>
<path d="M130.22 127.377H122.709V134.89H130.22V127.377Z" fill="white" stroke="#263238" stroke-miterlimit="10"/>
<path d="M139.808 127.377H132.297V134.89H139.808V127.377Z" fill="white" stroke="#263238" stroke-miterlimit="10"/>
<path d="M149.396 127.377H141.885V134.89H149.396V127.377Z" fill="white" stroke="#263238" stroke-miterlimit="10"/>
<path d="M158.99 127.377H151.479V134.89H158.99V127.377Z" fill="white" stroke="#263238" stroke-miterlimit="10"/>
<path d="M43.904 164.116H36.3926V171.629H43.904V164.116Z" fill="white" stroke="#263238" stroke-miterlimit="10"/>
<path d="M53.4997 164.116H45.9883V171.629H53.4997V164.116Z" fill="white" stroke="#263238" stroke-miterlimit="10"/>
<path d="M63.0876 164.116H55.5762V171.629H63.0876V164.116Z" fill="white" stroke="#263238" stroke-miterlimit="10"/>
<path d="M74.3329 164.116H65.1641V171.629H74.3329V164.116Z" fill="white" stroke="#263238" stroke-miterlimit="10"/>
<path d="M122.284 164.116H76.4082V171.629H122.284V164.116Z" fill="white" stroke="#263238" stroke-miterlimit="10"/>
<path d="M154.806 164.116H147.295V171.629H154.806V164.116Z" fill="white" stroke="#263238" stroke-miterlimit="10"/>
<path d="M164.414 164.116H156.902V171.629H164.414V164.116Z" fill="white" stroke="#263238" stroke-miterlimit="10"/>
<path d="M135.824 164.116H124.16V171.629H135.824V164.116Z" fill="white" stroke="#263238" stroke-miterlimit="10"/>
<path d="M174.308 164.116H166.797V171.629H174.308V164.116Z" fill="white" stroke="#263238" stroke-miterlimit="10"/>
<path d="M57.0271 136.535H49.5156V144.048H57.0271V136.535Z" fill="white" stroke="#263238" stroke-miterlimit="10"/>
<path d="M66.615 136.535H59.1035V144.048H66.615V136.535Z" fill="white" stroke="#263238" stroke-miterlimit="10"/>
<path d="M76.2087 136.535H68.6973V144.048H76.2087V136.535Z" fill="white" stroke="#263238" stroke-miterlimit="10"/>
<path d="M85.7966 136.535H78.2852V144.048H85.7966V136.535Z" fill="white" stroke="#263238" stroke-miterlimit="10"/>
<path d="M95.3903 136.535H87.8789V144.048H95.3903V136.535Z" fill="white" stroke="#263238" stroke-miterlimit="10"/>
<path d="M104.978 136.535H97.4668V144.048H104.978V136.535Z" fill="white" stroke="#263238" stroke-miterlimit="10"/>
<path d="M114.566 136.535H107.055V144.048H114.566V136.535Z" fill="white" stroke="#263238" stroke-miterlimit="10"/>
<path d="M124.16 136.535H116.648V144.048H124.16V136.535Z" fill="white" stroke="#263238" stroke-miterlimit="10"/>
<path d="M133.748 136.535H126.236V144.048H133.748V136.535Z" fill="white" stroke="#263238" stroke-miterlimit="10"/>
<path d="M143.336 136.535H135.824V144.048H143.336V136.535Z" fill="white" stroke="#263238" stroke-miterlimit="10"/>
<path d="M152.931 136.535H145.42V144.048H152.931V136.535Z" fill="white" stroke="#263238" stroke-miterlimit="10"/>
<path d="M162.517 136.535H155.006V144.048H162.517V136.535Z" fill="white" stroke="#263238" stroke-miterlimit="10"/>
<path d="M174.307 136.535V153.212H166.795V144.048H164.594V136.535H174.307Z" fill="white" stroke="#263238" stroke-miterlimit="10"/>
<path d="M59.2282 145.693H51.7168V153.206H59.2282V145.693Z" fill="white" stroke="#263238" stroke-miterlimit="10"/>
<path d="M68.8161 145.693H61.3047V153.206H68.8161V145.693Z" fill="white" stroke="#263238" stroke-miterlimit="10"/>
<path d="M78.404 145.693H70.8926V153.206H78.404V145.693Z" fill="white" stroke="#263238" stroke-miterlimit="10"/>
<path d="M87.9978 145.693H80.4863V153.206H87.9978V145.693Z" fill="white" stroke="#263238" stroke-miterlimit="10"/>
<path d="M97.5857 145.693H90.0742V153.206H97.5857V145.693Z" fill="white" stroke="#263238" stroke-miterlimit="10"/>
<path d="M107.179 145.693H99.668V153.206H107.179V145.693Z" fill="white" stroke="#263238" stroke-miterlimit="10"/>
<path d="M116.767 145.693H109.256V153.206H116.767V145.693Z" fill="white" stroke="#263238" stroke-miterlimit="10"/>
<path d="M126.355 145.693H118.844V153.206H126.355V145.693Z" fill="white" stroke="#263238" stroke-miterlimit="10"/>
<path d="M135.951 145.693H128.439V153.206H135.951V145.693Z" fill="white" stroke="#263238" stroke-miterlimit="10"/>
<path d="M145.537 145.693H138.025V153.206H145.537V145.693Z" fill="white" stroke="#263238" stroke-miterlimit="10"/>
<path d="M155.125 145.693H147.613V153.206H155.125V145.693Z" fill="white" stroke="#263238" stroke-miterlimit="10"/>
<path d="M164.72 145.693H157.209V153.206H164.72V145.693Z" fill="white" stroke="#263238" stroke-miterlimit="10"/>
<path d="M55.1501 154.851H47.6387V162.364H55.1501V154.851Z" fill="white" stroke="#263238" stroke-miterlimit="10"/>
<path d="M64.738 154.851H57.2266V162.364H64.738V154.851Z" fill="white" stroke="#263238" stroke-miterlimit="10"/>
<path d="M74.3318 154.851H66.8203V162.364H74.3318V154.851Z" fill="white" stroke="#263238" stroke-miterlimit="10"/>
<path d="M83.9196 154.851H76.4082V162.364H83.9196V154.851Z" fill="white" stroke="#263238" stroke-miterlimit="10"/>
<path d="M93.5134 154.851H86.002V162.364H93.5134V154.851Z" fill="white" stroke="#263238" stroke-miterlimit="10"/>
<path d="M103.101 154.851H95.5898V162.364H103.101V154.851Z" fill="white" stroke="#263238" stroke-miterlimit="10"/>
<path d="M112.689 154.851H105.178V162.364H112.689V154.851Z" fill="white" stroke="#263238" stroke-miterlimit="10"/>
<path d="M122.285 154.851H114.773V162.364H122.285V154.851Z" fill="white" stroke="#263238" stroke-miterlimit="10"/>
<path d="M131.873 154.851H124.361V162.364H131.873V154.851Z" fill="white" stroke="#263238" stroke-miterlimit="10"/>
<path d="M141.461 154.851H133.949V162.364H141.461V154.851Z" fill="white" stroke="#263238" stroke-miterlimit="10"/>
<path d="M151.054 154.851H143.543V162.364H151.054V154.851Z" fill="white" stroke="#263238" stroke-miterlimit="10"/>
<path d="M59.2282 118.669H51.7168V126.182H59.2282V118.669Z" fill="white" stroke="#263238" stroke-miterlimit="10"/>
<path d="M68.8161 118.669H61.3047V126.182H68.8161V118.669Z" fill="white" stroke="#263238" stroke-miterlimit="10"/>
<path d="M78.404 118.669H70.8926V126.182H78.404V118.669Z" fill="white" stroke="#263238" stroke-miterlimit="10"/>
<path d="M87.9978 118.669H80.4863V126.182H87.9978V118.669Z" fill="white" stroke="#263238" stroke-miterlimit="10"/>
<path d="M97.5857 118.669H90.0742V126.182H97.5857V118.669Z" fill="white" stroke="#263238" stroke-miterlimit="10"/>
<path d="M107.179 118.669H99.668V126.182H107.179V118.669Z" fill="white" stroke="#263238" stroke-miterlimit="10"/>
<path d="M116.767 118.669H109.256V126.182H116.767V118.669Z" fill="white" stroke="#263238" stroke-miterlimit="10"/>
<path d="M126.355 118.669H118.844V126.182H126.355V118.669Z" fill="white" stroke="#263238" stroke-miterlimit="10"/>
<path d="M135.951 118.669H128.439V126.182H135.951V118.669Z" fill="white" stroke="#263238" stroke-miterlimit="10"/>
<path d="M145.537 118.669H138.025V126.182H145.537V118.669Z" fill="white" stroke="#263238" stroke-miterlimit="10"/>
<path d="M155.125 118.669H147.613V126.182H155.125V118.669Z" fill="white" stroke="#263238" stroke-miterlimit="10"/>
<path d="M164.72 118.669H157.209V126.182H164.72V118.669Z" fill="white" stroke="#263238" stroke-miterlimit="10"/>
<path d="M174.308 118.669H166.797V126.182H174.308V118.669Z" fill="white" stroke="#263238" stroke-miterlimit="10"/>
<path d="M45.4926 154.851H36.3926V162.364H45.4926V154.851Z" fill="white" stroke="#263238" stroke-miterlimit="10"/>
<path d="M33.3789 114.928L36.3935 113.921H175.69L177.672 114.915L33.3789 114.928Z" fill="#263238"/>
<path d="M159.71 186.93L159.785 159.274C160.086 158.161 160.329 154.057 160.967 151.198C162.056 146.406 157.778 140.626 157.478 140.438C156.277 139.688 153.725 139.7 153.725 139.7C153.725 139.7 151.223 136.848 148.99 135.947C147.456 135.402 145.821 135.199 144.2 135.353C142.48 133.933 140.563 132.771 138.508 131.906C137.704 131.602 136.831 131.525 135.986 131.684C135.141 131.843 134.356 132.231 133.717 132.807L130.903 137.186C130.492 137.807 130.305 138.55 130.375 139.292C130.444 140.034 130.765 140.73 131.284 141.264C132.623 142.578 134.337 141.965 135.2 141.965C136.394 141.965 136.845 140.614 136.845 140.614C136.845 140.614 137.138 147.651 136.845 148.552C136.538 149.447 134.299 151.542 134.299 151.542L126.794 141.64C124.217 138.143 121.963 134.42 120.058 130.517C119.841 130.041 119.556 129.599 119.214 129.203C117.9 127.721 115.092 127.283 114.36 130.035C114.18 130.916 114.221 131.827 114.479 132.688C117.606 141.934 121.596 148.921 125.23 156.203C127.388 160.525 126.587 160.475 127.663 162.427C127.538 162.515 127.601 162.677 127.463 162.759C126.938 164.86 126.569 166.969 126.037 169.07C125.597 166.432 124.79 163.867 123.642 161.451C123.945 159.987 124.056 158.49 123.973 156.997C123.879 155.489 123.207 154.075 122.097 153.05C121.475 152.547 120.712 152.25 119.914 152.199C119.342 152.162 118.778 152.341 118.333 152.702C117.887 153.062 117.595 153.577 117.512 154.145C117.388 155.289 117.179 156.422 116.887 157.535C116.409 158.989 115.832 160.408 115.161 161.783C115.161 164.579 116.887 164.122 118.144 175.345C119.12 184.103 130.378 189.864 136.507 196.176L143.766 217.623C152.898 213.325 156.659 211.176 164.449 205.267L159.71 186.93Z" fill="white"/>
<path d="M122.253 171.792C122.328 171.654 122.391 171.516 122.453 171.373C122.387 171.419 122.333 171.483 122.298 171.556C122.263 171.629 122.248 171.711 122.253 171.792Z" fill="#92E3A9"/>
<path d="M140.284 133.094C139.426 132.423 138.405 131.992 137.326 131.843L140.284 133.094Z" fill="#92E3A9"/>
<path d="M136.951 136.022L136.989 136.335C137.011 136.229 136.997 136.119 136.951 136.022Z" fill="#92E3A9"/>
<g opacity="0.5">
<path opacity="0.5" d="M122.253 171.792C122.328 171.654 122.391 171.516 122.453 171.373C122.387 171.419 122.333 171.483 122.298 171.556C122.263 171.629 122.248 171.711 122.253 171.792Z" fill="white"/>
<path opacity="0.5" d="M140.284 133.094C139.426 132.423 138.405 131.992 137.326 131.843L140.284 133.094Z" fill="white"/>
<path opacity="0.5" d="M136.951 136.022L136.989 136.335C137.011 136.229 136.997 136.119 136.951 136.022Z" fill="white"/>
<path opacity="0.5" d="M140.396 163.153C140.115 162.452 138.751 160.438 137.957 161.833L140.396 163.153Z" fill="white"/>
</g>
<path d="M117.143 159.787C116.416 160.36 115.796 161.057 115.311 161.845L117.143 159.787Z" fill="white"/>
<path d="M143.766 217.623L136.569 196.157C130.44 189.845 119.182 184.071 118.207 175.326C116.956 164.103 115.223 164.56 115.223 161.764C115.895 160.389 116.471 158.97 116.949 157.516C117.241 156.403 117.45 155.27 117.575 154.126C117.657 153.559 117.95 153.044 118.395 152.683C118.84 152.322 119.405 152.143 119.977 152.18C120.775 152.231 121.537 152.528 122.159 153.031C123.27 154.056 123.942 155.47 124.036 156.978C124.119 158.471 124.007 159.968 123.704 161.432C124.853 163.848 125.659 166.413 126.1 169.052C126.631 166.95 127 164.842 127.526 162.74C127.663 162.658 127.601 162.496 127.726 162.408C126.65 160.456 127.45 160.531 125.293 156.184C121.659 148.902 117.675 141.915 114.542 132.669C114.284 131.808 114.243 130.897 114.423 130.017C115.154 127.264 117.963 127.702 119.276 129.185C119.619 129.58 119.903 130.022 120.12 130.498C122.025 134.401 124.28 138.124 126.856 141.621L134.362 151.523C134.362 151.523 136.601 149.428 136.907 148.533C137.201 147.632 136.907 140.595 136.907 140.595C136.907 140.595 136.457 141.946 135.262 141.946C134.399 141.946 132.685 142.572 131.347 141.245C130.823 140.72 130.493 140.031 130.412 139.293C130.331 138.555 130.504 137.812 130.903 137.185L133.699 132.807C134.338 132.231 135.123 131.843 135.968 131.684C136.813 131.525 137.685 131.602 138.489 131.906C140.544 132.771 142.462 133.933 144.181 135.353C145.802 135.199 147.437 135.402 148.972 135.947C151.223 136.854 153.706 139.7 153.706 139.7C153.706 139.7 156.252 139.7 157.459 140.438C157.759 140.626 162.037 146.406 160.949 151.198C160.323 154.057 160.067 158.161 159.767 159.274L159.692 186.93L164.718 205.267" stroke="#263238" stroke-miterlimit="10"/>
<path d="M144.887 136.328C145.988 140.409 146.56 144.614 146.588 148.84C146.552 149.548 146.628 150.257 146.813 150.942C146.91 151.282 147.093 151.592 147.343 151.841C147.594 152.091 147.905 152.272 148.245 152.368" stroke="#263238" stroke-miterlimit="10"/>
<path d="M153.73 140.438C155.607 144.354 153.687 153.1 153.824 153.719C153.883 154.03 154.008 154.325 154.19 154.584C154.373 154.843 154.608 155.06 154.881 155.22" stroke="#263238" stroke-miterlimit="10"/>
<path d="M137.608 135.791C137.389 137.042 137.207 138.48 136.982 139.725C136.254 139.099 135.658 138.334 135.229 137.474C134.799 136.615 134.545 135.679 134.48 134.721" stroke="#263238" stroke-miterlimit="10"/>
<path d="M125.624 169.171L124.273 169.765" stroke="#263238" stroke-miterlimit="10"/>
<path d="M125.968 170.253C125.753 171.297 125.753 172.374 125.968 173.418" stroke="#263238" stroke-miterlimit="10"/>
<path d="M133.873 158.561L135.368 161.257" stroke="#263238" stroke-miterlimit="10"/>
<path d="M136.75 148.696L138.239 146.594" stroke="#263238" stroke-miterlimit="10"/>
<path d="M157.683 158.561L157.232 160.212" stroke="#263238" stroke-miterlimit="10"/>
<path d="M154.043 154.076C154.46 152.674 154.9 151.273 155.363 149.872" stroke="#263238" stroke-miterlimit="10"/>
<path d="M158.422 146.6C158.818 146.393 159.279 146.351 159.706 146.483C160.133 146.616 160.49 146.912 160.698 147.307" stroke="#263238" stroke-miterlimit="10"/>
<path d="M149.459 139.419C149.978 139.273 150.525 139.26 151.051 139.38C151.576 139.5 152.063 139.75 152.467 140.107" stroke="#263238" stroke-miterlimit="10"/>
<path d="M121.602 143.591C122.087 143.059 122.691 142.649 123.365 142.395C124.039 142.14 124.763 142.049 125.479 142.127" stroke="#263238" stroke-miterlimit="10"/>
<path d="M115.955 131.793C116.402 131.471 116.909 131.24 117.445 131.113C117.982 130.986 118.538 130.967 119.082 131.055" stroke="#263238" stroke-miterlimit="10"/>
<path d="M117.143 159.787C116.416 160.36 115.796 161.057 115.311 161.845" stroke="#263238" stroke-miterlimit="10"/>
<path d="M117.719 156.941C118.707 156.24 120.283 157.817 121.19 157.01C121.351 156.828 121.463 156.61 121.516 156.373C121.57 156.137 121.563 155.891 121.496 155.658C121.363 155.193 121.302 154.71 121.315 154.226" stroke="#263238" stroke-miterlimit="10"/>
<path d="M145.605 152.606C146.809 155.104 147.054 157.958 146.293 160.625" stroke="#263238" stroke-miterlimit="10"/>
<path d="M152.873 156.465C153.068 157.648 152.847 158.862 152.248 159.9" stroke="#263238" stroke-miterlimit="10"/>
<path d="M90.0158 156.114C89.7468 154.863 87.9894 155.057 87.9894 155.057C82.0791 155.401 81.2848 164.665 81.2848 164.665L79.1645 171.015L78.5391 161.469L78.6017 149.164C78.6017 149.164 80.3904 137.391 79.5961 135.546C79.4147 135.037 79.0845 134.594 78.6485 134.275C78.2124 133.956 77.6906 133.775 77.1506 133.756C73.7108 132.893 73.5106 137.854 73.5106 137.854L70.6086 147.975L69.3828 158.892L68.3946 158.36C68.3946 158.36 67.9255 146.781 68.1257 146.587C68.3258 146.393 69.5141 138.579 69.5141 138.579C69.5141 138.579 70.1396 137.128 70.9714 135.277C71.2064 134.757 71.328 134.193 71.328 133.622C71.328 133.051 71.2064 132.487 70.9714 131.967C69.5767 129.121 66.6747 130.447 66.0742 131.967C65.3694 133.511 64.5758 135.013 63.6976 136.465L60.3828 145.529C60.5079 147.581 59.3321 157.697 59.3321 157.697L58.1375 157.159L56.2174 151.216L57.6809 145.129C57.6809 145.129 60.8769 141.626 60.3203 139.562C59.7636 137.497 57.0805 138.11 57.0805 138.11L51.6643 144.585H50.0694L46.3168 149.352C44.6134 154.464 44.3089 159.94 45.435 165.21L46.2981 169.232V195.237C46.2981 195.237 43.7276 199.403 43.7276 199.797C43.7276 199.979 41.2948 204.392 39.8125 208.49C46.2712 212.713 53.2432 216.28 61.5703 219.772C63.9407 213.097 67.9818 203.976 69.5141 202.312C72.5537 199.003 78.5078 192.653 78.5078 192.653C78.5078 192.653 85.2688 181.787 86.0631 178.171C86.6885 175.206 88.3021 169.826 88.8525 167.981C88.9803 167.562 89.0311 167.123 89.0026 166.686C88.9588 165.71 88.865 163.815 88.865 162.144C88.865 159.73 90.2722 157.346 90.0158 156.114Z" fill="white"/>
<path d="M39.8125 208.49C41.6928 204.192 44.3311 198.197 44.3311 198.015C44.3311 197.621 46.9016 193.455 46.9016 193.455V167.457L46.0385 163.459C44.9132 158.203 45.2112 152.741 46.9016 147.639L50.6542 142.872H52.2491L57.6653 136.397C57.6653 136.397 60.3797 135.772 60.9051 137.849C61.4304 139.926 58.2657 143.404 58.2657 143.404L56.8022 149.49L58.7223 155.433L59.9169 155.971C59.9169 155.971 61.0927 145.856 60.9676 143.804L64.2824 134.74C65.1606 133.287 65.9541 131.786 66.659 130.242C67.2845 128.722 70.1615 127.396 71.5562 130.242C71.7912 130.762 71.9128 131.326 71.9128 131.896C71.9128 132.467 71.7912 133.031 71.5562 133.551C70.7556 135.428 70.0989 136.854 70.0989 136.854C70.0989 136.854 68.9106 144.661 68.7105 144.861C68.5103 145.061 68.9794 156.634 68.9794 156.634L69.9676 157.166L71.1622 146.25L74.0642 136.128C74.0642 136.128 74.2643 131.168 77.7042 132.031C78.2441 132.05 78.7659 132.23 79.202 132.549C79.638 132.868 79.9682 133.311 80.1496 133.82C80.9439 135.665 79.1552 147.439 79.1552 147.439L79.0926 159.743L79.7181 169.289L81.8383 162.94C81.8383 162.94 82.6326 153.675 88.5429 153.331C88.5429 153.331 90.3004 153.15 90.5693 154.389C90.8382 155.627 89.4185 158.004 89.4185 160.388C89.4185 162.058 89.5123 163.953 89.5561 164.929C89.5846 165.366 89.5338 165.805 89.406 166.224C88.8556 168.07 87.2733 173.449 86.6166 176.415C85.8223 180.03 79.0614 190.896 79.0614 190.896C79.0614 190.896 73.1072 197.246 70.0676 200.555C68.5353 202.219 63.9407 213.097 61.5703 219.772" stroke="#263238" stroke-miterlimit="10"/>
<path d="M59.828 156.928C59.9941 157.55 59.9992 158.203 59.8427 158.827C59.6862 159.451 59.3733 160.025 58.9336 160.494" fill="white"/>
<path d="M59.828 156.928C59.9941 157.55 59.9992 158.203 59.8427 158.827C59.6862 159.451 59.3733 160.025 58.9336 160.494" stroke="#263238" stroke-miterlimit="10"/>
<path d="M49.7402 165.674C50.5971 164.341 51.4352 162.515 51.2037 160.951C50.7534 157.879 49.3274 154.345 49.9842 151.304C50.3844 149.365 50.791 147.42 51.1912 145.48" fill="white"/>
<path d="M49.7402 165.674C50.5971 164.341 51.4352 162.515 51.2037 160.951C50.7534 157.879 49.3274 154.345 49.9842 151.304C50.3844 149.365 50.791 147.42 51.1912 145.48" stroke="#263238" stroke-miterlimit="10"/>
<path d="M74.6758 136.66C75.7007 136.39 76.7781 136.39 77.8029 136.66C77.8029 136.372 77.8029 136.085 77.8029 135.791" stroke="#263238" stroke-miterlimit="10"/>
<path d="M66.4824 132.75C66.7838 132.958 67.1365 133.079 67.502 133.099C67.8675 133.12 68.2316 133.04 68.5544 132.867C68.8773 132.695 69.1466 132.437 69.3327 132.122C69.5188 131.806 69.6146 131.446 69.6096 131.08" stroke="#263238" stroke-miterlimit="10"/>
<path d="M89.0681 154.47C88.2035 154.692 87.4436 155.21 86.9196 155.933C86.3955 156.655 86.1401 157.539 86.1974 158.43L87.7297 158.886" stroke="#263238" stroke-miterlimit="10"/>
<path d="M68.9412 155.233C69.01 156.284 68.8787 158.792 68.9412 159.837V155.233Z" fill="white"/>
<path d="M68.9412 155.233C69.01 156.284 68.8787 158.792 68.9412 159.837" stroke="#263238" stroke-miterlimit="10"/>
<path d="M70.0924 156.684C69.9674 158.407 69.8402 160.127 69.7109 161.845C69.7109 161.626 69.7109 161.407 69.7109 161.188" fill="white"/>
<path d="M70.0924 156.684C69.9674 158.407 69.8402 160.127 69.7109 161.845C69.7109 161.626 69.7109 161.407 69.7109 161.188" stroke="#263238" stroke-miterlimit="10"/>
<path d="M79.6172 171.185C80.0712 173.086 79.8638 175.085 79.0293 176.852L79.6172 171.185Z" fill="white"/>
<path d="M79.6172 171.185C80.0712 173.086 79.8638 175.085 79.0293 176.852" stroke="#263238" stroke-miterlimit="10"/>
<path d="M63.7811 162.171C62.4177 163.666 62.6178 167.25 63.581 169.227" stroke="#263238" stroke-miterlimit="10"/>
<path d="M73.8574 164.635C73.8652 166.316 73.2731 167.944 72.1875 169.227" stroke="#263238" stroke-miterlimit="10"/>
<path d="M53.8489 162.884C53.6223 164.408 53.9532 165.963 54.7808 167.263" stroke="#263238" stroke-miterlimit="10"/>
<path d="M48.0458 167.557C47.986 168.746 48.325 169.922 49.009 170.897" stroke="#263238" stroke-miterlimit="10"/>
<path d="M56 138.712C56.3592 138.548 56.7589 138.495 57.1486 138.558C57.5383 138.621 57.9004 138.799 58.189 139.069L58.9771 138.043" stroke="#263238" stroke-miterlimit="10"/>
<path d="M62.418 143.31C62.9454 142.994 63.5684 142.876 64.1749 142.978C64.7814 143.08 65.3316 143.395 65.7265 143.867" stroke="#263238" stroke-miterlimit="10"/>
<path d="M72.4375 146.438C72.9995 146.187 73.61 146.064 74.2253 146.076C74.8405 146.089 75.4453 146.238 75.9962 146.513" stroke="#263238" stroke-miterlimit="10"/>
<path d="M50.1406 151.686C50.4736 151.129 50.9595 150.68 51.5405 150.392C52.1216 150.103 52.7732 149.988 53.4179 150.06" stroke="#263238" stroke-miterlimit="10"/>
<path d="M45.9434 157.666C45.9635 157.262 46.1216 156.876 46.3912 156.573C46.6608 156.27 47.0258 156.069 47.4256 156.002" stroke="#263238" stroke-miterlimit="10"/>
<path d="M210.333 7.95671L0.5 8.9451L3.67094 4.19082C4.41953 3.05979 5.43574 2.13113 6.62935 1.48727C7.82297 0.84342 9.15705 0.504293 10.5132 0.500002H200.369C201.598 0.499117 202.811 0.774062 203.92 1.30457C205.028 1.83508 206.004 2.60762 206.774 3.56526L210.333 7.95671Z" fill="white" stroke="#263238" stroke-linecap="round" stroke-linejoin="round"/>
<path d="M109.063 39.4163H97.5675C85.7715 39.4163 76.209 48.9808 76.209 60.7792V72.2771C76.209 84.0755 85.7715 93.64 97.5675 93.64H109.063C120.859 93.64 130.421 84.0755 130.421 72.2771V60.7792C130.421 48.9808 120.859 39.4163 109.063 39.4163Z" fill="#757575" stroke="#263238" stroke-linecap="round" stroke-linejoin="round"/>
<path d="M86.0586 71.1135V78.8205C86.0586 79.9818 86.5198 81.0956 87.3409 81.9168C88.1619 82.7381 89.2755 83.1994 90.4366 83.1994H116.874C118.029 83.1994 119.138 82.7424 119.958 81.9279C120.779 81.1135 121.243 80.0077 121.252 78.8517C121.289 75.3799 121.471 71.1135 121.471 71.1135H86.0586Z" fill="#999999" stroke="#263238" stroke-linecap="round" stroke-linejoin="round"/>
<path d="M182.814 73.6846H28.2072C27.412 73.6865 26.6347 73.4487 25.9765 73.0024C25.3184 72.5561 24.8098 71.9219 24.5171 71.1824L0.669384 9.94604C0.524688 9.57584 0.472617 9.17589 0.5177 8.78097C0.562783 8.38605 0.703655 8.00813 0.928062 7.68008C1.15247 7.35203 1.45361 7.0838 1.8053 6.8987C2.15698 6.71361 2.54856 6.61726 2.94596 6.61805H208.088C208.482 6.62232 208.87 6.72236 209.218 6.90959C209.565 7.09681 209.862 7.36561 210.083 7.69292C210.304 8.02022 210.442 8.39625 210.486 8.7887C210.529 9.18115 210.477 9.5783 210.333 9.94604L186.485 71.1636C186.197 71.9037 185.692 72.5398 185.038 72.9894C184.383 73.439 183.608 73.6812 182.814 73.6846Z" fill="white" stroke="#263238" stroke-linecap="round" stroke-linejoin="round"/>
<path d="M183.964 68.3485H26.6868L5.04688 10.4965H205.504L183.964 68.3485Z" fill="white"/>
<path d="M121.29 73.6034H86.2285V76.0055H121.29V73.6034Z" fill="#263238"/>
<path d="M160.992 65.8713H49.9275C49.3021 65.8713 48.7392 65.5961 48.6266 65.2457L32.8282 15.0443C32.6531 14.4813 33.1472 14.0247 33.9352 14.0247H176.984C177.772 14.0247 178.266 14.4813 178.085 15.0443L162.293 65.2457C162.174 65.5898 161.598 65.8713 160.992 65.8713Z" fill="#38BFF2"/>
<path d="M159.88 64.7265H51.0547C50.8506 64.7279 50.6517 64.6627 50.488 64.5407C50.3244 64.4188 50.2049 64.2468 50.1478 64.0509L37.2889 21.8504C37.241 21.7066 37.2282 21.5534 37.2516 21.4037C37.2749 21.2539 37.3337 21.1119 37.4231 20.9895C37.5124 20.867 37.6297 20.7678 37.7652 20.6999C37.9007 20.632 38.0505 20.5975 38.202 20.5993H172.72C172.872 20.5975 173.021 20.632 173.157 20.6999C173.292 20.7678 173.41 20.867 173.499 20.9895C173.588 21.1119 173.647 21.2539 173.67 21.4037C173.694 21.5534 173.681 21.7066 173.633 21.8504L160.787 64.0509C160.729 64.2463 160.609 64.4177 160.446 64.5395C160.282 64.6612 160.084 64.7269 159.88 64.7265Z" fill="#263238"/>
<path d="M66.1645 31.5717H45.2939C44.7748 31.5717 44.437 31.8469 44.5371 32.1972C44.638 32.3988 44.7965 32.5658 44.9925 32.6772C45.1885 32.7886 45.4131 32.8392 45.6378 32.8228H66.3897C66.9025 32.8228 67.2653 32.5475 67.209 32.1972C67.1527 31.8469 66.6774 31.5717 66.1645 31.5717Z" fill="white"/>
<path d="M66.8581 35.3813H49.1083C48.6017 35.3813 48.2702 35.6503 48.3578 36.0069C48.4533 36.206 48.6062 36.3719 48.7968 36.4834C48.9874 36.5948 49.2069 36.6468 49.4273 36.6325H67.1082C67.6148 36.6325 67.9713 36.3635 67.915 36.0069C67.8587 35.6503 67.3647 35.3813 66.8581 35.3813Z" fill="white"/>
<path opacity="0.5" d="M67.5337 39.0597H47.3948C46.8945 39.0597 46.5692 39.3162 46.6568 39.6352C46.7574 39.8262 46.9117 39.9837 47.1006 40.0882C47.2895 40.1926 47.5048 40.2396 47.72 40.2232H67.7339C68.228 40.2232 68.5845 39.9668 68.5282 39.6477C68.4719 39.3287 68.0341 39.0597 67.5337 39.0597Z" fill="white"/>
<path d="M68.1836 42.6129H56.3567C55.8688 42.6129 55.5311 42.8631 55.6061 43.1697C55.6812 43.4762 56.1378 43.7264 56.6256 43.7264H68.39C68.8778 43.7264 69.2281 43.4762 69.1718 43.1697C69.1155 42.8631 68.6777 42.6129 68.1836 42.6129Z" fill="white"/>
<path d="M68.8157 46.041H49.3523C48.8769 46.041 48.5517 46.285 48.6393 46.579C48.7268 46.873 49.1771 47.117 49.6587 47.117H69.0471C69.5224 47.117 69.8664 46.8793 69.8164 46.579C69.7664 46.2787 69.2973 46.041 68.8157 46.041Z" fill="white"/>
<path d="M69.4215 49.3628H53.7107C53.2353 49.3628 52.9164 49.5943 52.9914 49.882C53.0665 50.1698 53.5105 50.4012 53.9796 50.4012H69.6154C70.0845 50.4012 70.4222 50.1698 70.3722 49.882C70.3221 49.5943 69.8968 49.3628 69.4215 49.3628Z" fill="white"/>
<path d="M70.0102 52.5719H54.5557C54.0867 52.5719 53.774 52.7971 53.849 53.0724C53.9241 53.3476 54.3556 53.5791 54.8184 53.5791H70.1978C70.6606 53.5791 70.9921 53.3539 70.9421 53.0724C70.892 52.7908 70.4792 52.5719 70.0102 52.5719Z" fill="white"/>
<path d="M70.5803 55.6747H53.6936C53.2371 55.6747 52.9244 55.8936 52.9994 56.1626C53.0745 56.4316 53.4998 56.6506 53.9563 56.6506H70.7367C71.1932 56.6506 71.5247 56.4316 71.4747 56.1626C71.4246 55.8936 71.0431 55.6747 70.5803 55.6747Z" fill="white"/>
<path opacity="0.5" d="M71.1355 58.6836H60.228C59.7777 58.6836 59.4649 58.8963 59.5275 59.159C59.59 59.4218 60.0091 59.6282 60.4531 59.6282H71.2919C71.7422 59.6282 72.0674 59.4155 72.0236 59.159C71.9799 58.9025 71.5858 58.6836 71.1355 58.6836Z" fill="white"/>
<path opacity="0.5" d="M65.4394 27.6182H49.8849C49.3595 27.6182 49.0093 27.906 49.1031 28.2438C49.2038 28.4469 49.3631 28.6151 49.5605 28.7267C49.7579 28.8382 49.9842 28.8879 50.2101 28.8693H65.6708C66.1961 28.8693 66.5652 28.5816 66.5026 28.2438C66.4155 28.0395 66.2653 27.8685 66.0739 27.7559C65.8826 27.6433 65.6602 27.5951 65.4394 27.6182Z" fill="white"/>
<path d="M64.6814 23.5208H43.0289C42.4973 23.5208 42.1471 23.8148 42.2534 24.1838C42.3581 24.3959 42.5233 24.5721 42.7282 24.6901C42.933 24.8081 43.1683 24.8627 43.4042 24.8469H64.9316C65.4569 24.8469 65.8385 24.5529 65.7697 24.1838C65.7009 23.8148 65.2318 23.5208 64.6814 23.5208Z" fill="white"/>
<path d="M71.668 61.5988H53.7243C53.2803 61.5988 52.9801 61.8052 53.0489 62.0554C53.1177 62.3056 53.5367 62.5121 53.9808 62.5121H71.8369C72.2747 62.5121 72.5999 62.3056 72.5561 62.0554C72.5123 61.8052 72.112 61.5988 71.668 61.5988Z" fill="white"/>
<path opacity="0.5" d="M73.4951 32.9604H77.5416L77.3415 31.4153H73.2637L73.4951 32.9604Z" fill="white"/>
<path opacity="0.5" d="M74.0572 36.7202H78.0349L77.8411 35.2313H73.832L74.0572 36.7202Z" fill="white"/>
<path opacity="0.5" d="M74.6013 40.3547H78.5103L78.3226 38.9159H74.3887L74.6013 40.3547Z" fill="white"/>
<path opacity="0.5" d="M75.1326 43.864H78.9727L78.7851 42.469H74.9199L75.1326 43.864Z" fill="white"/>
<path opacity="0.5" d="M75.6396 47.2483H79.4172L79.2358 45.9095H75.4395L75.6396 47.2483Z" fill="white"/>
<path opacity="0.5" d="M76.1337 50.5262H79.8425L79.6737 49.2313H75.9336L76.1337 50.5262Z" fill="white"/>
<path opacity="0.5" d="M76.6095 53.7041H80.262L80.0994 52.4404H76.4219L76.6095 53.7041Z" fill="white"/>
<path opacity="0.5" d="M77.0661 56.7694H80.6624L80.506 55.5558H76.8848L77.0661 56.7694Z" fill="white"/>
<path opacity="0.5" d="M77.515 59.747H81.0549L80.8985 58.5647H77.3398L77.515 59.747Z" fill="white"/>
<path opacity="0.5" d="M72.9056 29.0631H77.0272L76.8208 27.4554H72.668L72.9056 29.0631Z" fill="white"/>
<path opacity="0.5" d="M72.299 25.0158H76.4956L76.283 23.3518H72.0488L72.299 25.0158Z" fill="white"/>
<path opacity="0.5" d="M77.9462 62.6246H81.4299L81.2798 61.4799H77.7773L77.9462 62.6246Z" fill="white"/>
<path d="M99.2812 56.1626C99.2812 55.8936 99.6315 55.6747 100.088 55.6747H160.017C160.474 55.6747 160.786 55.8936 160.705 56.1626C160.607 56.3265 160.464 56.4593 160.294 56.5456C160.123 56.6319 159.932 56.6683 159.742 56.6506H100.119C99.6628 56.6506 99.2875 56.4316 99.2812 56.1626Z" fill="white"/>
<path d="M160.623 53.5791H127.438C126.975 53.5791 126.625 53.3539 126.656 53.0724C126.688 52.7908 127.088 52.5719 127.557 52.5719H160.924C161.386 52.5719 161.699 52.7971 161.618 53.0724C161.519 53.2444 161.373 53.3839 161.196 53.4739C161.02 53.5639 160.821 53.6004 160.623 53.5791Z" fill="white"/>
<path opacity="0.5" d="M119.564 53.5791H109.244C108.781 53.5791 108.406 53.3539 108.412 53.0724C108.418 52.7908 108.794 52.5719 109.263 52.5719H119.645C120.108 52.5719 120.471 52.7971 120.446 53.0724C120.42 53.3476 120.026 53.5791 119.564 53.5791Z" fill="white"/>
<path d="M141.104 50.4012H94.2966C93.8275 50.4012 93.4335 50.1698 93.4147 49.882C93.396 49.5943 93.765 49.3628 94.2403 49.3628H141.298C141.767 49.3628 142.111 49.5943 142.055 49.882C141.998 50.1698 141.579 50.4012 141.104 50.4012Z" fill="white"/>
<path opacity="0.5" d="M84.5134 49.3628H87.847C88.316 49.3628 88.7226 49.5943 88.7476 49.882C88.7726 50.1698 88.4098 50.4012 87.9408 50.4012H84.6197C84.1506 50.4012 83.7441 50.1698 83.7128 49.882C83.6816 49.5943 84.0381 49.3628 84.5134 49.3628Z" fill="white"/>
<path d="M147.877 46.579C147.815 46.8793 147.377 47.117 146.895 47.117H102.79C102.308 47.117 101.92 46.8793 101.914 46.579C101.908 46.2787 102.296 46.041 102.771 46.041H147.12C147.602 46.041 147.94 46.285 147.877 46.579Z" fill="white"/>
<path d="M84.1575 46.041H96.6661C97.1477 46.041 97.548 46.285 97.5605 46.579C97.573 46.873 97.1915 47.117 96.7162 47.117H84.2701C83.7947 47.117 83.382 46.8793 83.3444 46.579C83.3069 46.2787 83.6759 46.041 84.1575 46.041Z" fill="white"/>
<path d="M83.788 42.6129H131.909C132.397 42.6129 132.759 42.8631 132.716 43.1697C132.672 43.4762 132.246 43.7264 131.759 43.7264H83.9068C83.4252 43.7264 82.9999 43.4762 82.9687 43.1697C82.9374 42.8631 83.3002 42.6129 83.788 42.6129Z" fill="white"/>
<path d="M115.03 40.2233C114.536 40.2233 114.148 39.9668 114.16 39.6478C114.173 39.3287 114.586 39.0723 115.086 39.0723H140.472C140.973 39.0723 141.329 39.3287 141.273 39.6478C141.217 39.9668 140.773 40.2233 140.279 40.2233H115.03Z" fill="white"/>
<path d="M83.4129 39.0597H105.384C105.885 39.0597 106.285 39.3162 106.285 39.6352C106.285 39.9542 105.885 40.2232 105.384 40.2232H83.538C83.0377 40.2232 82.6124 39.9668 82.5749 39.6477C82.5373 39.3287 82.9126 39.0597 83.4129 39.0597Z" fill="white"/>
<path d="M165.502 36.5762H105.017C104.516 36.5762 104.104 36.3072 104.104 35.9506C104.104 35.5941 104.51 35.3251 105.017 35.3251H165.84C166.347 35.3251 166.678 35.5941 166.584 35.9506C166.485 36.1496 166.33 36.3151 166.137 36.4263C165.945 36.5375 165.724 36.5897 165.502 36.5762Z" fill="white"/>
<path d="M166.551 32.8041H113.39C112.877 32.8041 112.47 32.5289 112.483 32.1785C112.495 31.8282 112.921 31.553 113.44 31.553H166.964C167.477 31.553 167.815 31.8282 167.715 32.1785C167.608 32.3897 167.44 32.5629 167.232 32.6749C167.023 32.7868 166.786 32.8319 166.551 32.8041Z" fill="white"/>
<path opacity="0.5" d="M167.702 28.9006H156.545C156.019 28.9006 155.663 28.6128 155.744 28.275C155.841 28.0707 155.999 27.9012 156.196 27.7893C156.393 27.6775 156.619 27.6287 156.845 27.6495H168.052C168.578 27.6495 168.922 27.9372 168.815 28.275C168.71 28.4755 168.549 28.6412 168.351 28.7521C168.154 28.8631 167.928 28.9147 167.702 28.9006Z" fill="white"/>
<path d="M148.759 28.9005H107.837C107.318 28.9005 106.892 28.6128 106.899 28.275C106.905 27.9372 107.324 27.6494 107.849 27.6494H149.04C149.565 27.6494 149.934 27.9372 149.859 28.275C149.766 28.4823 149.609 28.6545 149.411 28.7669C149.213 28.8793 148.985 28.9261 148.759 28.9005Z" fill="white"/>
<path d="M85.5022 58.6836H123.297C123.747 58.6836 124.091 58.8963 124.06 59.159C124.029 59.4218 123.654 59.6282 123.203 59.6282H85.6086C85.1583 59.6282 84.7705 59.4155 84.7455 59.159C84.7205 58.9025 85.0519 58.6836 85.5022 58.6836Z" fill="white"/>
<path d="M85.8143 61.5988H143.879C144.317 61.5988 144.636 61.8052 144.58 62.0554C144.524 62.3056 144.13 62.5121 143.686 62.5121H85.9144C85.4704 62.5121 85.0888 62.3056 85.0638 62.0554C85.0388 61.8052 85.3703 61.5988 85.8143 61.5988Z" fill="white"/>
<path d="M146.726 24.8469H117.143C116.611 24.8469 116.199 24.5529 116.217 24.1838C116.236 23.8148 116.68 23.5208 117.218 23.5208H146.976C147.514 23.5208 147.889 23.8148 147.82 24.1838C147.732 24.3964 147.579 24.5753 147.382 24.6946C147.185 24.8138 146.955 24.8672 146.726 24.8469Z" fill="white"/>
<path opacity="0.5" d="M108.787 24.8469H81.8931C81.3614 24.8469 80.8986 24.5529 80.8548 24.1838C80.8111 23.8148 81.2113 23.5208 81.7492 23.5208H108.799C109.331 23.5208 109.762 23.8148 109.756 24.1838C109.75 24.5529 109.318 24.8469 108.787 24.8469Z" fill="white"/>
<path opacity="0.5" d="M131.678 58.6836C132.128 58.6836 132.466 58.8963 132.428 59.159C132.391 59.4218 131.997 59.6282 131.546 59.6282H128.626C128.182 59.6282 127.844 59.4155 127.875 59.159C127.906 58.9025 128.294 58.6836 128.744 58.6836H131.678Z" fill="white"/>
<path opacity="0.5" d="M95.8355 56.1626C95.8355 56.4316 95.4915 56.6506 95.0349 56.6506H91.0572C90.6006 56.6506 90.2128 56.4316 90.1941 56.1626C90.1753 55.8936 90.5256 55.6747 90.9821 55.6747H94.9786C95.4415 55.6747 95.823 55.8936 95.8355 56.1626Z" fill="white"/>
<path opacity="0.5" d="M143.837 43.1697C143.781 43.4762 143.343 43.7264 142.856 43.7264H138.202C137.714 43.7264 137.364 43.4762 137.408 43.1697C137.452 42.8631 137.896 42.6129 138.384 42.6129H143.062C143.55 42.6129 143.9 42.8631 143.837 43.1697Z" fill="white"/>
<path opacity="0.5" d="M158.353 46.041C158.834 46.041 159.159 46.285 159.078 46.579C158.982 46.7578 158.835 46.9042 158.656 46.9999C158.477 47.0956 158.273 47.1363 158.071 47.117H154.362C153.881 47.117 153.556 46.8793 153.624 46.579C153.719 46.4001 153.865 46.2535 154.043 46.1577C154.221 46.0618 154.424 46.0212 154.625 46.041H158.353Z" fill="white"/>
<path opacity="0.5" d="M97.6927 36.5762C97.1923 36.5762 96.7733 36.3072 96.7545 35.9506C96.7358 35.5941 97.1423 35.3251 97.6489 35.3251H101.595C102.102 35.3251 102.515 35.5941 102.521 35.9506C102.527 36.3072 102.121 36.5762 101.62 36.5762H97.6927Z" fill="white"/>
<path d="M43.9676 17.3151C44.0553 17.5243 44.0883 17.7525 44.0632 17.9779C44.0382 18.2034 43.956 18.4187 43.8245 18.6036C43.693 18.7884 43.5164 18.9365 43.3116 19.034C43.1068 19.1315 42.8805 19.175 42.6542 19.1606C42.1077 19.1287 41.5827 18.9368 41.1445 18.6086C40.7063 18.2805 40.3744 17.8306 40.19 17.3151C40.0975 17.1055 40.0604 16.8755 40.0823 16.6474C40.1041 16.4193 40.1841 16.2006 40.3147 16.0122C40.4452 15.8239 40.6219 15.6722 40.8279 15.5718C41.0338 15.4713 41.2621 15.4254 41.4909 15.4385C42.0442 15.467 42.5761 15.6612 43.0178 15.9958C43.4594 16.3305 43.7903 16.7901 43.9676 17.3151Z" fill="white"/>
<path d="M49.0337 17.3464C49.1124 17.5606 49.1363 17.7911 49.1032 18.0169C49.0702 18.2427 48.9813 18.4566 48.8446 18.6393C48.7079 18.8221 48.5278 18.9677 48.3205 19.0631C48.1132 19.1585 47.8854 19.2006 47.6578 19.1856C47.1183 19.1587 46.5997 18.9684 46.1707 18.6399C45.7418 18.3115 45.4229 17.8603 45.2561 17.3464C45.1734 17.1312 45.1458 16.8987 45.1758 16.6701C45.2059 16.4415 45.2926 16.2241 45.4281 16.0376C45.5636 15.851 45.7436 15.7014 45.9517 15.6022C46.1598 15.503 46.3894 15.4575 46.6196 15.4697C47.1664 15.495 47.6921 15.689 48.1243 16.025C48.5565 16.361 48.8742 16.8226 49.0337 17.3464Z" fill="white"/>
<path d="M54.1809 17.3151C54.251 17.5363 54.2659 17.7713 54.2242 17.9996C54.1825 18.2278 54.0855 18.4424 53.9417 18.6245C53.7979 18.8066 53.6117 18.9506 53.3994 19.0441C53.187 19.1375 52.955 19.1775 52.7237 19.1605C52.1891 19.1362 51.6755 18.9451 51.2549 18.6142C50.8344 18.2833 50.5278 17.829 50.3783 17.3151C50.3046 17.0948 50.2859 16.8598 50.3237 16.6305C50.3616 16.4013 50.4548 16.1848 50.5954 15.9998C50.7359 15.8148 50.9195 15.667 51.1302 15.5691C51.3409 15.4713 51.5723 15.4264 51.8043 15.4384C52.3494 15.4545 52.8748 15.6457 53.3029 15.9837C53.7309 16.3217 54.0388 16.7885 54.1809 17.3151Z" fill="white"/>
<path d="M49.7785 93.4586H36.5881C35.7587 93.4586 34.9633 93.7882 34.3769 94.3747C33.7904 94.9613 33.4609 95.7569 33.4609 96.5864V103.011C33.4609 103.841 33.7904 104.636 34.3769 105.223C34.9633 105.809 35.7587 106.139 36.5881 106.139H40.0342L42.6485 112.063L46.3323 106.139H49.7785C50.6078 106.139 51.4032 105.809 51.9897 105.223C52.5762 104.636 52.9056 103.841 52.9056 103.011V96.5614C52.899 95.7362 52.5666 94.947 51.9809 94.3659C51.3952 93.7847 50.6035 93.4586 49.7785 93.4586Z" fill="white" stroke="#263238" stroke-linecap="round" stroke-linejoin="round"/>
<path d="M41.3477 97.1495C41.3477 96.9836 41.4135 96.8245 41.5308 96.7072C41.6481 96.5898 41.8072 96.5239 41.9731 96.5239C42.1317 96.5235 42.2844 96.5834 42.4006 96.6914C42.5167 96.7994 42.5874 96.9475 42.5985 97.1057C42.5985 97.2716 42.5326 97.4307 42.4153 97.548C42.298 97.6654 42.139 97.7313 41.9731 97.7313C41.8145 97.7316 41.6617 97.6718 41.5456 97.5638C41.4295 97.4558 41.3588 97.3077 41.3477 97.1495ZM41.4853 98.4569H42.4922V102.748H41.4665L41.4853 98.4569Z" fill="#263238"/>
<path d="M44.9125 98.2192V98.4757H46.0946V99.2827H44.95V102.736H43.9681V99.2827H43.2363V98.4757H43.9681V98.2005C43.9521 97.9973 43.9811 97.7932 44.0532 97.6026C44.1253 97.412 44.2386 97.2397 44.385 97.0981C44.5314 96.9564 44.7073 96.8489 44.9002 96.7831C45.093 96.7174 45.2979 96.6951 45.5004 96.7179C45.8211 96.7017 46.1392 96.7823 46.4135 96.9493L46.1321 97.7063C45.9682 97.5935 45.7743 97.5325 45.5754 97.5311C45.1314 97.5311 44.9125 97.7751 44.9125 98.2192Z" fill="#263238"/>
<path d="M89.9429 94.3594H76.7463C75.9169 94.3594 75.1215 94.6889 74.5351 95.2755C73.9486 95.8621 73.6191 96.6576 73.6191 97.4872V103.905C73.6191 104.735 73.9486 105.531 74.5351 106.117C75.1215 106.704 75.9169 107.033 76.7463 107.033H80.1987L82.8067 112.957L86.4905 107.033H89.9429C90.7723 107.033 91.5677 106.704 92.1542 106.117C92.7406 105.531 93.0701 104.735 93.0701 103.905V97.4622C93.0635 96.637 92.7311 95.8478 92.1454 95.2666C91.5596 94.6855 90.768 94.3593 89.9429 94.3594Z" fill="white" stroke="#263238" stroke-linecap="round" stroke-linejoin="round"/>
<path d="M79.5231 101.81H76.152C76.2181 102.123 76.3965 102.401 76.6535 102.591C76.9105 102.781 77.2283 102.87 77.5468 102.842C77.7627 102.85 77.9779 102.812 78.1784 102.731C78.3788 102.651 78.56 102.528 78.7101 102.373L79.2479 102.999C78.9231 103.321 78.5129 103.545 78.0655 103.643C77.6181 103.741 77.152 103.709 76.722 103.552C76.2919 103.394 75.9157 103.117 75.6375 102.753C75.3593 102.389 75.1907 101.954 75.1514 101.497C75.1426 101.205 75.194 100.914 75.3024 100.642C75.4108 100.371 75.5738 100.124 75.7815 99.9182C75.9891 99.7123 76.2369 99.5513 76.5093 99.4452C76.7818 99.3391 77.0732 99.2902 77.3654 99.3014C77.6579 99.2894 77.9496 99.3391 78.2217 99.4471C78.4938 99.5552 78.7402 99.7192 78.9448 99.9286C79.1494 100.138 79.3078 100.388 79.4095 100.663C79.5113 100.937 79.5543 101.23 79.5356 101.522C79.5356 101.591 79.5294 101.716 79.5231 101.81ZM76.1458 101.147H78.5787C78.5487 100.85 78.4063 100.576 78.1807 100.38C77.9552 100.185 77.6635 100.083 77.3654 100.096C77.067 100.085 76.7753 100.187 76.5491 100.382C76.3228 100.577 76.1788 100.85 76.1458 101.147Z" fill="#263238"/>
<path d="M80.4988 97.6749H81.4933V103.637H80.4863L80.4988 97.6749Z" fill="#263238"/>
<path d="M82.332 103.211L82.7135 102.448C83.1636 102.724 83.6806 102.871 84.2083 102.873C84.8338 102.873 85.109 102.698 85.109 102.398C85.109 101.578 82.4571 102.348 82.4571 100.64C82.4571 99.8269 83.1889 99.2951 84.3334 99.2951C84.8912 99.2862 85.4428 99.4129 85.9408 99.6642L85.553 100.427C85.1737 100.207 84.7406 100.097 84.3022 100.108C83.6767 100.108 83.4015 100.309 83.4015 100.59C83.4015 101.46 86.0534 100.684 86.0534 102.367C86.0534 103.167 85.3153 103.693 84.1083 103.693C83.4834 103.697 82.8693 103.53 82.332 103.211Z" fill="#263238"/>
<path d="M90.9743 101.81H87.6032C87.6693 102.123 87.8477 102.401 88.1047 102.591C88.3617 102.781 88.6795 102.87 88.9979 102.842C89.2139 102.85 89.4291 102.812 89.6296 102.731C89.83 102.651 90.0112 102.528 90.1612 102.373L90.6991 102.999C90.3743 103.321 89.9641 103.545 89.5167 103.643C89.0693 103.741 88.6032 103.709 88.1731 103.552C87.7431 103.394 87.3669 103.117 87.0887 102.753C86.8105 102.389 86.6418 101.954 86.6025 101.497C86.5937 101.205 86.6451 100.914 86.7535 100.642C86.8619 100.371 87.025 100.124 87.2327 99.9182C87.4403 99.7123 87.688 99.5513 87.9605 99.4452C88.233 99.3391 88.5244 99.2902 88.8166 99.3014C89.1091 99.2894 89.4008 99.3391 89.6729 99.4471C89.945 99.5552 90.1913 99.7192 90.3959 99.9286C90.6006 100.138 90.7589 100.388 90.8607 100.663C90.9625 100.937 91.0055 101.23 90.9868 101.522C90.9868 101.591 90.9806 101.716 90.9743 101.81ZM87.597 101.147H90.0299C89.9998 100.85 89.8575 100.576 89.6319 100.38C89.4064 100.185 89.1147 100.083 88.8166 100.096C88.5181 100.085 88.2265 100.187 88.0003 100.382C87.774 100.577 87.6299 100.85 87.597 101.147Z" fill="#263238"/>
<path d="M128.882 93.9779H115.686C114.856 93.9779 114.061 94.3074 113.475 94.894C112.888 95.4806 112.559 96.2762 112.559 97.1057V103.53C112.559 104.36 112.888 105.155 113.475 105.742C114.061 106.329 114.856 106.658 115.686 106.658H119.138L121.746 112.582L125.43 106.658H128.882C129.712 106.658 130.507 106.329 131.094 105.742C131.68 105.155 132.01 104.36 132.01 103.53V97.0807C132.003 96.2555 131.671 95.4663 131.085 94.8852C130.499 94.304 129.707 93.9779 128.882 93.9779Z" fill="white" stroke="#263238" stroke-linecap="round" stroke-linejoin="round"/>
<path d="M118.714 98.7384V99.0261H119.896V99.8331H118.745V103.286H117.769V99.8331H117.062V99.0261H117.769V98.7509C117.753 98.5477 117.782 98.3436 117.854 98.153C117.926 97.9624 118.04 97.7901 118.186 97.6485C118.333 97.5068 118.508 97.3993 118.701 97.3335C118.894 97.2678 119.099 97.2455 119.302 97.2683C119.62 97.2526 119.936 97.3333 120.208 97.4998L119.927 98.2567C119.766 98.1411 119.574 98.0778 119.377 98.0753C118.933 98.044 118.714 98.2817 118.714 98.7384Z" fill="#263238"/>
<path d="M120.152 101.109C120.135 100.653 120.254 100.202 120.495 99.8137C120.736 99.4257 121.087 99.1186 121.504 98.932C121.921 98.7454 122.384 98.6877 122.834 98.7664C123.284 98.8451 123.7 99.0566 124.029 99.3737C124.357 99.6908 124.584 100.099 124.679 100.546C124.773 100.992 124.733 101.457 124.561 101.881C124.39 102.304 124.096 102.667 123.717 102.922C123.338 103.176 122.892 103.312 122.435 103.311C122.137 103.329 121.84 103.284 121.56 103.181C121.281 103.077 121.026 102.917 120.811 102.71C120.597 102.503 120.428 102.254 120.314 101.979C120.201 101.703 120.146 101.407 120.152 101.109ZM123.711 101.109C123.694 100.866 123.606 100.634 123.459 100.44C123.311 100.246 123.111 100.099 122.881 100.018C122.652 99.9363 122.403 99.9237 122.167 99.9814C121.93 100.039 121.715 100.165 121.549 100.343C121.383 100.521 121.272 100.743 121.23 100.983C121.189 101.223 121.218 101.47 121.315 101.694C121.412 101.917 121.572 102.108 121.775 102.242C121.978 102.376 122.216 102.447 122.46 102.448C122.632 102.448 122.802 102.413 122.96 102.345C123.117 102.277 123.259 102.177 123.377 102.051C123.494 101.926 123.584 101.777 123.642 101.615C123.699 101.453 123.723 101.281 123.711 101.109Z" fill="#263238"/>
<path d="M128.163 98.9135V99.8706C128.086 99.8651 128.009 99.8651 127.932 99.8706C127.757 99.8568 127.582 99.8823 127.419 99.9452C127.256 100.008 127.109 100.107 126.989 100.234C126.869 100.361 126.779 100.514 126.725 100.68C126.672 100.847 126.657 101.024 126.681 101.197V103.28H125.674V98.9635H126.631V99.5891C126.806 99.3534 127.039 99.1672 127.308 99.0488C127.576 98.9304 127.871 98.8838 128.163 98.9135Z" fill="#263238"/>
<path d="M167.259 93.4586H154.043C153.214 93.4586 152.418 93.7882 151.832 94.3747C151.245 94.9613 150.916 95.7569 150.916 96.5864V103.011C150.916 103.841 151.245 104.636 151.832 105.223C152.418 105.809 153.214 106.139 154.043 106.139H157.496L160.104 112.063L163.787 106.139H167.24C168.069 106.139 168.865 105.809 169.451 105.223C170.037 104.636 170.367 103.841 170.367 103.011V96.5614C170.36 95.7394 170.031 94.9531 169.449 94.3725C168.867 93.7918 168.08 93.4635 167.259 93.4586Z" fill="white" stroke="#263238" stroke-linecap="round" stroke-linejoin="round"/>
<path d="M158.947 98.2317H162.65V99.0262H158.947V98.2317ZM158.947 100.177H162.65V100.984H158.947V100.177Z" fill="#263238"/>
<path d="M69.8921 86.0332H56.6955C55.8661 86.0332 55.0707 86.3627 54.4843 86.9493C53.8978 87.5359 53.5684 88.3315 53.5684 89.161V95.5793C53.5684 96.4088 53.8978 97.2044 54.4843 97.791C55.0707 98.3776 55.8661 98.7071 56.6955 98.7071H60.1479L62.756 104.631L66.4398 98.7071H69.8921C70.7215 98.7071 71.5169 98.3776 72.1034 97.791C72.6898 97.2044 73.0193 96.4088 73.0193 95.5793V89.136C73.0127 88.3108 72.6803 87.5216 72.0946 86.9405C71.5088 86.3593 70.7172 86.0332 69.8921 86.0332Z" fill="white" stroke="#263238" stroke-linecap="round" stroke-linejoin="round"/>
<path d="M60.1914 88.6981H62.1052V89.5051H61.1921V95.4167H62.1052V96.2236H60.1914V88.6981Z" fill="#263238"/>
<path d="M64.6074 96.2236V95.4167H65.5143V89.5051H64.6074V88.6981H66.4837V96.2049L64.6074 96.2236Z" fill="#263238"/>
<path d="M109.119 85.3763H95.9221C95.0927 85.3763 94.2973 85.7059 93.7108 86.2925C93.1244 86.879 92.7949 87.6746 92.7949 88.5042V94.8974C92.7949 95.727 93.1244 96.5225 93.7108 97.1091C94.2973 97.6957 95.0927 98.0252 95.9221 98.0252H99.3745L101.989 103.949L105.673 98.0252H109.119C109.948 98.0252 110.743 97.6957 111.33 97.1091C111.916 96.5225 112.246 95.727 112.246 94.8974V88.4791C112.239 87.6539 111.907 86.8648 111.321 86.2836C110.735 85.7024 109.944 85.3763 109.119 85.3763Z" fill="white" stroke="#263238" stroke-linecap="round" stroke-linejoin="round"/>
<path d="M99.8367 91.7759C100.156 91.8822 100.312 92.1012 100.312 92.5953V94.128C100.298 94.2106 100.303 94.2953 100.327 94.3755C100.352 94.4558 100.394 94.5292 100.452 94.5899C100.51 94.6507 100.581 94.6971 100.66 94.7255C100.739 94.7539 100.823 94.7635 100.906 94.7535H101.075V95.5605H100.669C100.488 95.5875 100.303 95.5726 100.129 95.5169C99.9545 95.4612 99.7954 95.3662 99.6636 95.2393C99.5319 95.1123 99.4311 94.9568 99.3689 94.7848C99.3067 94.6127 99.2849 94.4287 99.3051 94.2468V92.5953C99.3051 92.3264 99.1675 92.2075 98.9424 92.2075H98.6797V91.388H98.9424C99.1675 91.388 99.3051 91.2691 99.3051 91.0002V89.3424C99.2847 89.1608 99.3064 88.9769 99.3686 88.805C99.4307 88.6332 99.5317 88.478 99.6636 88.3515C99.7955 88.225 99.9548 88.1306 100.129 88.0757C100.303 88.0209 100.488 88.0069 100.669 88.035H101.075V88.842H100.881C100.798 88.8306 100.713 88.8392 100.633 88.8671C100.554 88.8951 100.482 88.9415 100.424 89.0026C100.366 89.0637 100.323 89.1377 100.299 89.2186C100.276 89.2994 100.271 89.3847 100.287 89.4675V90.9939C100.312 91.4568 100.156 91.6758 99.8367 91.7759Z" fill="#263238"/>
<path d="M105.967 91.3693V92.1888H105.691C105.472 92.1888 105.335 92.3076 105.335 92.5766V94.2281C105.354 94.4103 105.331 94.5944 105.268 94.7664C105.205 94.9384 105.104 95.0937 104.972 95.2205C104.84 95.3473 104.68 95.4421 104.506 95.4978C104.331 95.5535 104.146 95.5685 103.965 95.5418H103.559V94.7348H103.727C103.813 94.7489 103.9 94.7424 103.983 94.716C104.065 94.6895 104.14 94.6438 104.201 94.5826C104.262 94.5215 104.308 94.4467 104.334 94.3643C104.361 94.282 104.367 94.1946 104.353 94.1092V92.5766C104.353 92.0824 104.497 91.8635 104.816 91.7571C104.497 91.657 104.353 91.4381 104.353 90.9376V89.4113C104.368 89.3257 104.363 89.2376 104.337 89.1546C104.311 89.0716 104.266 88.9961 104.204 88.9346C104.143 88.8731 104.067 88.8274 103.984 88.8015C103.901 88.7755 103.813 88.7701 103.727 88.7857H103.559V88.0162H103.965C104.146 87.9884 104.331 88.0024 104.505 88.0573C104.68 88.1122 104.839 88.2064 104.972 88.3328C105.104 88.4591 105.206 88.6141 105.269 88.7859C105.332 88.9578 105.354 89.1417 105.335 89.3237V90.9814C105.335 91.2504 105.472 91.3693 105.691 91.3693H105.967Z" fill="#263238"/>
<path d="M147.933 84.0752H134.737C133.907 84.0752 133.112 84.4047 132.525 84.9913C131.939 85.5779 131.609 86.3735 131.609 87.203V93.6213C131.609 94.4508 131.939 95.2464 132.525 95.833C133.112 96.4196 133.907 96.7491 134.737 96.7491H138.183L140.797 102.673L144.481 96.7491H147.933C148.763 96.7491 149.558 96.4196 150.144 95.833C150.731 95.2464 151.06 94.4508 151.06 93.6213V87.178C151.054 86.3528 150.721 85.5636 150.136 84.9824C149.55 84.4013 148.758 84.0752 147.933 84.0752Z" fill="white" stroke="#263238" stroke-linecap="round" stroke-linejoin="round"/>
<path d="M140.81 88.8233C140.801 88.7312 140.811 88.6383 140.84 88.5505C140.869 88.4626 140.916 88.3819 140.979 88.3134C141.041 88.2449 141.117 88.1901 141.201 88.1526C141.286 88.1152 141.377 88.0958 141.47 88.0958C141.562 88.0958 141.654 88.1152 141.738 88.1526C141.823 88.1901 141.898 88.2449 141.961 88.3134C142.023 88.3819 142.07 88.4626 142.099 88.5505C142.128 88.6383 142.138 88.7312 142.129 88.8233C142.138 88.9153 142.128 89.0082 142.099 89.0961C142.07 89.1839 142.023 89.2646 141.961 89.3331C141.898 89.4016 141.823 89.4564 141.738 89.4939C141.654 89.5313 141.562 89.5507 141.47 89.5507C141.377 89.5507 141.286 89.5313 141.201 89.4939C141.117 89.4564 141.041 89.4016 140.979 89.3331C140.916 89.2646 140.869 89.1839 140.84 89.0961C140.811 89.0082 140.801 88.9153 140.81 88.8233ZM142.129 91.8885C142.112 92.1279 142.049 92.3617 141.942 92.5766L141.529 93.7151H140.904L141.229 92.464C141.113 92.4149 141.014 92.3319 140.946 92.2259C140.878 92.1198 140.844 91.9957 140.847 91.8697C140.847 91.6964 140.916 91.5301 141.039 91.4075C141.161 91.2849 141.328 91.216 141.501 91.216C141.674 91.216 141.84 91.2849 141.963 91.4075C142.086 91.5301 142.154 91.6964 142.154 91.8697L142.129 91.8885Z" fill="#263238"/>
<path d="M96.3479 196.326H109.538C110.368 196.326 111.163 195.997 111.749 195.41C112.336 194.824 112.665 194.028 112.665 193.198V186.799C112.657 185.975 112.324 185.187 111.738 184.607C111.153 184.028 110.362 183.702 109.538 183.702H106.092L105.085 177.778L99.794 183.702H96.3479C95.5239 183.702 94.7332 184.028 94.1476 184.607C93.562 185.187 93.2289 185.975 93.2207 186.799V193.223C93.2273 194.049 93.5597 194.838 94.1454 195.419C94.7312 196 95.5228 196.326 96.3479 196.326Z" fill="white" stroke="#263238" stroke-linecap="round" stroke-linejoin="round"/>
<path d="M100.982 188.694L98.2112 189.733L100.982 190.771V191.609L97.2793 190.171V189.295L100.982 187.856V188.694Z" fill="#263238"/>
<path d="M103.91 185.773H104.804L102.133 193.349H101.258L103.91 185.773Z" fill="#263238"/>
<path d="M108.699 189.295V190.164L104.996 191.603V190.765L107.761 189.733L104.99 188.701V187.856L108.699 189.295Z" fill="#263238"/>
<path d="M12.4651 149.565H25.6554C26.4848 149.565 27.2802 149.236 27.8667 148.649C28.4531 148.063 28.7826 147.267 28.7826 146.438V140.044C28.7826 139.215 28.4531 138.419 27.8667 137.833C27.2802 137.246 26.4848 136.917 25.6554 136.917H22.2093L22.9598 130.992L15.9112 136.917H12.4651C11.6357 136.917 10.8403 137.246 10.2538 137.833C9.66736 138.419 9.33789 139.215 9.33789 140.044V146.463C9.34449 147.288 9.67687 148.077 10.2626 148.658C10.8484 149.239 11.64 149.565 12.4651 149.565Z" fill="white" stroke="#263238" stroke-linecap="round" stroke-linejoin="round"/>
<path d="M16.373 145.493C16.373 145.327 16.4389 145.168 16.5562 145.051C16.6735 144.933 16.8326 144.867 16.9985 144.867C17.1644 144.867 17.3234 144.933 17.4407 145.051C17.558 145.168 17.6239 145.327 17.6239 145.493C17.6239 145.659 17.558 145.818 17.4407 145.935C17.3234 146.053 17.1644 146.118 16.9985 146.118C16.8326 146.118 16.6735 146.053 16.5562 145.935C16.4389 145.818 16.373 145.659 16.373 145.493ZM16.4481 140.438H17.6364L17.4363 144.192H16.6232L16.4481 140.438Z" fill="#263238"/>
<path d="M18.6562 141.877H22.3588V142.684H18.6562V141.877ZM18.6562 143.823H22.3588V144.63H18.6562V143.823Z" fill="#263238"/>
</svg>
